<mxfile host="Electron" agent="Mozilla/5.0 (Windows NT 10.0; Win64; x64) AppleWebKit/537.36 (KHTML, like Gecko) draw.io/24.7.5 Chrome/126.0.6478.183 Electron/31.3.0 Safari/537.36" version="24.7.5">
  <diagram name="Página-1" id="E3aodZleRn08sSQu-MqB">
    <mxGraphModel dx="684" dy="614" grid="1" gridSize="10" guides="1" tooltips="1" connect="1" arrows="1" fold="1" page="1" pageScale="1" pageWidth="827" pageHeight="1169" math="0" shadow="0">
      <root>
        <mxCell id="0" />
        <mxCell id="1" parent="0" />
        <mxCell id="N2MzjKT95uYfe9s_-h8l-80" style="edgeStyle=orthogonalEdgeStyle;rounded=0;orthogonalLoop=1;jettySize=auto;html=1;exitX=0.5;exitY=1;exitDx=0;exitDy=0;exitPerimeter=0;entryX=0.5;entryY=0;entryDx=0;entryDy=0;" edge="1" parent="1" source="N2MzjKT95uYfe9s_-h8l-81" target="N2MzjKT95uYfe9s_-h8l-84">
          <mxGeometry relative="1" as="geometry" />
        </mxCell>
        <mxCell id="N2MzjKT95uYfe9s_-h8l-81" value="INICIO" style="strokeWidth=2;html=1;shape=mxgraph.flowchart.start_1;whiteSpace=wrap;" vertex="1" parent="1">
          <mxGeometry x="25" y="40" width="100" height="30" as="geometry" />
        </mxCell>
        <mxCell id="N2MzjKT95uYfe9s_-h8l-82" value="FIM" style="strokeWidth=2;html=1;shape=mxgraph.flowchart.start_1;whiteSpace=wrap;" vertex="1" parent="1">
          <mxGeometry x="27.5" y="370" width="100" height="30" as="geometry" />
        </mxCell>
        <mxCell id="N2MzjKT95uYfe9s_-h8l-83" style="edgeStyle=orthogonalEdgeStyle;rounded=0;orthogonalLoop=1;jettySize=auto;html=1;exitX=0.5;exitY=1;exitDx=0;exitDy=0;" edge="1" parent="1" source="N2MzjKT95uYfe9s_-h8l-84">
          <mxGeometry relative="1" as="geometry">
            <mxPoint x="75" y="165" as="targetPoint" />
          </mxGeometry>
        </mxCell>
        <mxCell id="N2MzjKT95uYfe9s_-h8l-84" value="INICIAR" style="shape=process;whiteSpace=wrap;html=1;backgroundOutline=1;" vertex="1" parent="1">
          <mxGeometry x="22.5" y="97.5" width="110" height="30" as="geometry" />
        </mxCell>
        <mxCell id="N2MzjKT95uYfe9s_-h8l-85" style="edgeStyle=orthogonalEdgeStyle;rounded=0;orthogonalLoop=1;jettySize=auto;html=1;exitX=0.5;exitY=1;exitDx=0;exitDy=0;entryX=0.5;entryY=0;entryDx=0;entryDy=0;" edge="1" parent="1" source="N2MzjKT95uYfe9s_-h8l-86" target="N2MzjKT95uYfe9s_-h8l-87">
          <mxGeometry relative="1" as="geometry" />
        </mxCell>
        <mxCell id="N2MzjKT95uYfe9s_-h8l-86" value="PROCESSAR&lt;div&gt;até EOF&amp;nbsp;&lt;/div&gt;&lt;div&gt;de CLIENTES&lt;/div&gt;" style="shape=process;whiteSpace=wrap;html=1;backgroundOutline=1;" vertex="1" parent="1">
          <mxGeometry x="15" y="232.5" width="115" height="50" as="geometry" />
        </mxCell>
        <mxCell id="N2MzjKT95uYfe9s_-h8l-87" value="FINALIZAR" style="shape=process;whiteSpace=wrap;html=1;backgroundOutline=1;" vertex="1" parent="1">
          <mxGeometry x="20" y="305" width="110" height="30" as="geometry" />
        </mxCell>
        <mxCell id="N2MzjKT95uYfe9s_-h8l-88" style="edgeStyle=orthogonalEdgeStyle;rounded=0;orthogonalLoop=1;jettySize=auto;html=1;exitX=0.5;exitY=1;exitDx=0;exitDy=0;exitPerimeter=0;entryX=0.5;entryY=0;entryDx=0;entryDy=0;" edge="1" parent="1" source="N2MzjKT95uYfe9s_-h8l-89">
          <mxGeometry relative="1" as="geometry">
            <mxPoint x="225" y="95" as="targetPoint" />
          </mxGeometry>
        </mxCell>
        <mxCell id="N2MzjKT95uYfe9s_-h8l-89" value="INICIAR" style="strokeWidth=2;html=1;shape=mxgraph.flowchart.start_1;whiteSpace=wrap;" vertex="1" parent="1">
          <mxGeometry x="175" y="35" width="100" height="30" as="geometry" />
        </mxCell>
        <mxCell id="N2MzjKT95uYfe9s_-h8l-90" value="FIM-INICIAR" style="strokeWidth=2;html=1;shape=mxgraph.flowchart.start_1;whiteSpace=wrap;" vertex="1" parent="1">
          <mxGeometry x="180" y="292.5" width="100" height="30" as="geometry" />
        </mxCell>
        <mxCell id="N2MzjKT95uYfe9s_-h8l-92" style="edgeStyle=orthogonalEdgeStyle;rounded=0;orthogonalLoop=1;jettySize=auto;html=1;entryX=0.5;entryY=0;entryDx=0;entryDy=0;" edge="1" parent="1" source="N2MzjKT95uYfe9s_-h8l-93" target="N2MzjKT95uYfe9s_-h8l-105">
          <mxGeometry relative="1" as="geometry" />
        </mxCell>
        <mxCell id="N2MzjKT95uYfe9s_-h8l-93" value="PROCESSAR" style="strokeWidth=2;html=1;shape=mxgraph.flowchart.start_1;whiteSpace=wrap;" vertex="1" parent="1">
          <mxGeometry x="902" y="40" width="100" height="30" as="geometry" />
        </mxCell>
        <mxCell id="N2MzjKT95uYfe9s_-h8l-94" value="FIM-PROCESSAR" style="strokeWidth=2;html=1;shape=mxgraph.flowchart.start_1;whiteSpace=wrap;" vertex="1" parent="1">
          <mxGeometry x="902" y="472.5" width="100" height="30" as="geometry" />
        </mxCell>
        <mxCell id="N2MzjKT95uYfe9s_-h8l-95" value="FINALIZAR" style="strokeWidth=2;html=1;shape=mxgraph.flowchart.start_1;whiteSpace=wrap;" vertex="1" parent="1">
          <mxGeometry x="1970" y="30.63" width="100" height="30" as="geometry" />
        </mxCell>
        <mxCell id="N2MzjKT95uYfe9s_-h8l-96" value="FIM-FINALIZAR" style="strokeWidth=2;html=1;shape=mxgraph.flowchart.start_1;whiteSpace=wrap;" vertex="1" parent="1">
          <mxGeometry x="1970" y="472.5" width="100" height="30" as="geometry" />
        </mxCell>
        <mxCell id="N2MzjKT95uYfe9s_-h8l-221" value="" style="edgeStyle=orthogonalEdgeStyle;rounded=0;orthogonalLoop=1;jettySize=auto;html=1;" edge="1" parent="1" source="N2MzjKT95uYfe9s_-h8l-98" target="N2MzjKT95uYfe9s_-h8l-96">
          <mxGeometry relative="1" as="geometry" />
        </mxCell>
        <mxCell id="N2MzjKT95uYfe9s_-h8l-98" value="FECHAR&lt;div&gt;ARQ-CLIENTES&lt;/div&gt;&lt;div&gt;FECHAR&lt;/div&gt;&lt;div&gt;ARQ-RELAT&lt;/div&gt;" style="shape=parallelogram;perimeter=parallelogramPerimeter;whiteSpace=wrap;html=1;fixedSize=1;" vertex="1" parent="1">
          <mxGeometry x="1960" y="360" width="120" height="70" as="geometry" />
        </mxCell>
        <mxCell id="N2MzjKT95uYfe9s_-h8l-99" style="edgeStyle=orthogonalEdgeStyle;rounded=0;orthogonalLoop=1;jettySize=auto;html=1;exitX=0.5;exitY=1;exitDx=0;exitDy=0;exitPerimeter=0;entryX=0.5;entryY=0;entryDx=0;entryDy=0;" edge="1" parent="1" source="N2MzjKT95uYfe9s_-h8l-100" target="N2MzjKT95uYfe9s_-h8l-113">
          <mxGeometry relative="1" as="geometry" />
        </mxCell>
        <mxCell id="N2MzjKT95uYfe9s_-h8l-100" value="VERIFICAR&lt;div&gt;VAZIO&lt;/div&gt;" style="strokeWidth=2;html=1;shape=mxgraph.flowchart.start_1;whiteSpace=wrap;" vertex="1" parent="1">
          <mxGeometry x="442" y="30" width="100" height="43.75" as="geometry" />
        </mxCell>
        <mxCell id="N2MzjKT95uYfe9s_-h8l-101" value="FIM-VERIFICAR-VAZIO" style="strokeWidth=2;html=1;shape=mxgraph.flowchart.start_1;whiteSpace=wrap;" vertex="1" parent="1">
          <mxGeometry x="442" y="301.25" width="100" height="30" as="geometry" />
        </mxCell>
        <mxCell id="N2MzjKT95uYfe9s_-h8l-102" style="edgeStyle=orthogonalEdgeStyle;rounded=0;orthogonalLoop=1;jettySize=auto;html=1;exitX=0.5;exitY=1;exitDx=0;exitDy=0;entryX=0.5;entryY=0;entryDx=0;entryDy=0;entryPerimeter=0;" edge="1" parent="1" source="N2MzjKT95uYfe9s_-h8l-87" target="N2MzjKT95uYfe9s_-h8l-82">
          <mxGeometry relative="1" as="geometry" />
        </mxCell>
        <mxCell id="N2MzjKT95uYfe9s_-h8l-103" value="" style="edgeStyle=orthogonalEdgeStyle;rounded=0;orthogonalLoop=1;jettySize=auto;html=1;" edge="1" parent="1" source="N2MzjKT95uYfe9s_-h8l-105" target="N2MzjKT95uYfe9s_-h8l-156">
          <mxGeometry relative="1" as="geometry" />
        </mxCell>
        <mxCell id="N2MzjKT95uYfe9s_-h8l-222" value="NAO" style="edgeLabel;html=1;align=center;verticalAlign=middle;resizable=0;points=[];" vertex="1" connectable="0" parent="N2MzjKT95uYfe9s_-h8l-103">
          <mxGeometry x="-0.2529" relative="1" as="geometry">
            <mxPoint as="offset" />
          </mxGeometry>
        </mxCell>
        <mxCell id="N2MzjKT95uYfe9s_-h8l-188" style="edgeStyle=orthogonalEdgeStyle;rounded=0;orthogonalLoop=1;jettySize=auto;html=1;exitX=1;exitY=0.5;exitDx=0;exitDy=0;entryX=0.5;entryY=0;entryDx=0;entryDy=0;" edge="1" parent="1" source="N2MzjKT95uYfe9s_-h8l-105" target="N2MzjKT95uYfe9s_-h8l-158">
          <mxGeometry relative="1" as="geometry" />
        </mxCell>
        <mxCell id="N2MzjKT95uYfe9s_-h8l-189" value="SIM" style="edgeLabel;html=1;align=center;verticalAlign=middle;resizable=0;points=[];" vertex="1" connectable="0" parent="N2MzjKT95uYfe9s_-h8l-188">
          <mxGeometry x="-0.5154" y="2" relative="1" as="geometry">
            <mxPoint as="offset" />
          </mxGeometry>
        </mxCell>
        <mxCell id="N2MzjKT95uYfe9s_-h8l-105" value="QT-LINHAS &amp;gt; 12" style="rhombus;whiteSpace=wrap;html=1;" vertex="1" parent="1">
          <mxGeometry x="872" y="103.75" width="160" height="47.5" as="geometry" />
        </mxCell>
        <mxCell id="N2MzjKT95uYfe9s_-h8l-160" value="" style="edgeStyle=orthogonalEdgeStyle;rounded=0;orthogonalLoop=1;jettySize=auto;html=1;" edge="1" parent="1" source="N2MzjKT95uYfe9s_-h8l-108" target="N2MzjKT95uYfe9s_-h8l-109">
          <mxGeometry relative="1" as="geometry" />
        </mxCell>
        <mxCell id="N2MzjKT95uYfe9s_-h8l-108" value="ABRIR&lt;div&gt;ARQ-CLIENTES&lt;/div&gt;&lt;div&gt;ABRIR&amp;nbsp;&lt;/div&gt;&lt;div&gt;ARQ-RELAT&lt;/div&gt;" style="rounded=1;whiteSpace=wrap;html=1;absoluteArcSize=1;arcSize=14;strokeWidth=2;" vertex="1" parent="1">
          <mxGeometry x="170" y="100" width="110" height="70" as="geometry" />
        </mxCell>
        <mxCell id="N2MzjKT95uYfe9s_-h8l-109" value="&lt;div&gt;QT-LINHAS = 0&lt;/div&gt;" style="rounded=1;whiteSpace=wrap;html=1;absoluteArcSize=1;arcSize=34;strokeWidth=2;" vertex="1" parent="1">
          <mxGeometry x="170" y="220" width="110" height="40" as="geometry" />
        </mxCell>
        <mxCell id="N2MzjKT95uYfe9s_-h8l-110" style="edgeStyle=orthogonalEdgeStyle;rounded=0;orthogonalLoop=1;jettySize=auto;html=1;exitX=0.5;exitY=1;exitDx=0;exitDy=0;" edge="1" parent="1" source="N2MzjKT95uYfe9s_-h8l-111">
          <mxGeometry relative="1" as="geometry">
            <mxPoint x="78" y="230" as="targetPoint" />
          </mxGeometry>
        </mxCell>
        <mxCell id="N2MzjKT95uYfe9s_-h8l-111" value="VERIFICAR&lt;div&gt;VAZIO&lt;/div&gt;" style="shape=process;whiteSpace=wrap;html=1;backgroundOutline=1;" vertex="1" parent="1">
          <mxGeometry x="22.5" y="165" width="110" height="30" as="geometry" />
        </mxCell>
        <mxCell id="N2MzjKT95uYfe9s_-h8l-112" style="edgeStyle=orthogonalEdgeStyle;rounded=0;orthogonalLoop=1;jettySize=auto;html=1;exitX=0.5;exitY=1;exitDx=0;exitDy=0;entryX=0.5;entryY=0;entryDx=0;entryDy=0;" edge="1" parent="1" source="N2MzjKT95uYfe9s_-h8l-113" target="N2MzjKT95uYfe9s_-h8l-119">
          <mxGeometry relative="1" as="geometry" />
        </mxCell>
        <mxCell id="N2MzjKT95uYfe9s_-h8l-113" value="LER DADOS" style="shape=process;whiteSpace=wrap;html=1;backgroundOutline=1;" vertex="1" parent="1">
          <mxGeometry x="437" y="103.75" width="110" height="30" as="geometry" />
        </mxCell>
        <mxCell id="N2MzjKT95uYfe9s_-h8l-114" style="edgeStyle=orthogonalEdgeStyle;rounded=0;orthogonalLoop=1;jettySize=auto;html=1;exitX=0.5;exitY=1;exitDx=0;exitDy=0;exitPerimeter=0;entryX=0.5;entryY=0;entryDx=0;entryDy=0;" edge="1" parent="1" source="N2MzjKT95uYfe9s_-h8l-115" target="N2MzjKT95uYfe9s_-h8l-116">
          <mxGeometry relative="1" as="geometry" />
        </mxCell>
        <mxCell id="N2MzjKT95uYfe9s_-h8l-115" value="LER&lt;div&gt;DADOS&lt;/div&gt;" style="strokeWidth=2;html=1;shape=mxgraph.flowchart.start_1;whiteSpace=wrap;" vertex="1" parent="1">
          <mxGeometry x="707" y="40" width="100" height="30" as="geometry" />
        </mxCell>
        <mxCell id="N2MzjKT95uYfe9s_-h8l-116" value="LER&lt;div&gt;CLIENTES&lt;/div&gt;" style="shape=parallelogram;perimeter=parallelogramPerimeter;whiteSpace=wrap;html=1;fixedSize=1;" vertex="1" parent="1">
          <mxGeometry x="707" y="87.5" width="110" height="40" as="geometry" />
        </mxCell>
        <mxCell id="N2MzjKT95uYfe9s_-h8l-117" value="FIM-LER-DADOS" style="strokeWidth=2;html=1;shape=mxgraph.flowchart.start_1;whiteSpace=wrap;" vertex="1" parent="1">
          <mxGeometry x="717" y="153.75" width="100" height="30" as="geometry" />
        </mxCell>
        <mxCell id="N2MzjKT95uYfe9s_-h8l-118" style="edgeStyle=orthogonalEdgeStyle;rounded=0;orthogonalLoop=1;jettySize=auto;html=1;entryX=0.5;entryY=0;entryDx=0;entryDy=0;" edge="1" parent="1" source="N2MzjKT95uYfe9s_-h8l-119" target="N2MzjKT95uYfe9s_-h8l-151">
          <mxGeometry relative="1" as="geometry" />
        </mxCell>
        <mxCell id="N2MzjKT95uYfe9s_-h8l-161" value="NAO" style="edgeLabel;html=1;align=center;verticalAlign=middle;resizable=0;points=[];" vertex="1" connectable="0" parent="N2MzjKT95uYfe9s_-h8l-118">
          <mxGeometry x="-0.359" y="2" relative="1" as="geometry">
            <mxPoint as="offset" />
          </mxGeometry>
        </mxCell>
        <mxCell id="N2MzjKT95uYfe9s_-h8l-119" value="EOF" style="rhombus;whiteSpace=wrap;html=1;" vertex="1" parent="1">
          <mxGeometry x="452" y="143.75" width="80" height="80" as="geometry" />
        </mxCell>
        <mxCell id="N2MzjKT95uYfe9s_-h8l-120" value="ARQUIVO&amp;nbsp;&lt;div&gt;CLIENTES&lt;div&gt;VAZIO&lt;/div&gt;&lt;/div&gt;" style="strokeWidth=2;html=1;shape=mxgraph.flowchart.display;whiteSpace=wrap;" vertex="1" parent="1">
          <mxGeometry x="572" y="203.75" width="100" height="43.75" as="geometry" />
        </mxCell>
        <mxCell id="N2MzjKT95uYfe9s_-h8l-121" style="edgeStyle=orthogonalEdgeStyle;rounded=0;orthogonalLoop=1;jettySize=auto;html=1;exitX=1;exitY=0.5;exitDx=0;exitDy=0;entryX=0.5;entryY=0;entryDx=0;entryDy=0;entryPerimeter=0;" edge="1" parent="1" source="N2MzjKT95uYfe9s_-h8l-119" target="N2MzjKT95uYfe9s_-h8l-120">
          <mxGeometry relative="1" as="geometry" />
        </mxCell>
        <mxCell id="N2MzjKT95uYfe9s_-h8l-122" value="SIM" style="edgeLabel;html=1;align=center;verticalAlign=middle;resizable=0;points=[];" connectable="0" vertex="1" parent="N2MzjKT95uYfe9s_-h8l-121">
          <mxGeometry x="-0.1213" y="1" relative="1" as="geometry">
            <mxPoint as="offset" />
          </mxGeometry>
        </mxCell>
        <mxCell id="N2MzjKT95uYfe9s_-h8l-123" value="" style="verticalLabelPosition=bottom;verticalAlign=top;html=1;shape=mxgraph.flowchart.on-page_reference;" vertex="1" parent="1">
          <mxGeometry x="482" y="256.25" width="20" height="20" as="geometry" />
        </mxCell>
        <mxCell id="N2MzjKT95uYfe9s_-h8l-124" style="edgeStyle=orthogonalEdgeStyle;rounded=0;orthogonalLoop=1;jettySize=auto;html=1;exitX=0.5;exitY=1;exitDx=0;exitDy=0;entryX=0.5;entryY=0;entryDx=0;entryDy=0;entryPerimeter=0;" edge="1" parent="1" source="N2MzjKT95uYfe9s_-h8l-119" target="N2MzjKT95uYfe9s_-h8l-123">
          <mxGeometry relative="1" as="geometry" />
        </mxCell>
        <mxCell id="N2MzjKT95uYfe9s_-h8l-125" value="N" style="edgeLabel;html=1;align=center;verticalAlign=middle;resizable=0;points=[];" connectable="0" vertex="1" parent="N2MzjKT95uYfe9s_-h8l-124">
          <mxGeometry x="-0.2522" y="1" relative="1" as="geometry">
            <mxPoint as="offset" />
          </mxGeometry>
        </mxCell>
        <mxCell id="N2MzjKT95uYfe9s_-h8l-126" style="edgeStyle=orthogonalEdgeStyle;rounded=0;orthogonalLoop=1;jettySize=auto;html=1;exitX=0.5;exitY=1;exitDx=0;exitDy=0;exitPerimeter=0;entryX=0.5;entryY=0;entryDx=0;entryDy=0;entryPerimeter=0;" edge="1" parent="1" source="N2MzjKT95uYfe9s_-h8l-123" target="N2MzjKT95uYfe9s_-h8l-101">
          <mxGeometry relative="1" as="geometry" />
        </mxCell>
        <mxCell id="N2MzjKT95uYfe9s_-h8l-127" style="edgeStyle=orthogonalEdgeStyle;rounded=0;orthogonalLoop=1;jettySize=auto;html=1;exitX=0.5;exitY=1;exitDx=0;exitDy=0;exitPerimeter=0;entryX=1;entryY=0.5;entryDx=0;entryDy=0;entryPerimeter=0;" edge="1" parent="1" source="N2MzjKT95uYfe9s_-h8l-120" target="N2MzjKT95uYfe9s_-h8l-123">
          <mxGeometry relative="1" as="geometry">
            <Array as="points">
              <mxPoint x="622" y="266" />
            </Array>
          </mxGeometry>
        </mxCell>
        <mxCell id="N2MzjKT95uYfe9s_-h8l-128" style="edgeStyle=orthogonalEdgeStyle;rounded=0;orthogonalLoop=1;jettySize=auto;html=1;exitX=0.5;exitY=1;exitDx=0;exitDy=0;" edge="1" parent="1" source="N2MzjKT95uYfe9s_-h8l-116">
          <mxGeometry relative="1" as="geometry">
            <mxPoint x="762" y="150" as="targetPoint" />
          </mxGeometry>
        </mxCell>
        <mxCell id="N2MzjKT95uYfe9s_-h8l-129" style="edgeStyle=orthogonalEdgeStyle;rounded=0;orthogonalLoop=1;jettySize=auto;html=1;exitX=0.5;exitY=1;exitDx=0;exitDy=0;exitPerimeter=0;entryX=0.5;entryY=0;entryDx=0;entryDy=0;entryPerimeter=0;" edge="1" parent="1" source="N2MzjKT95uYfe9s_-h8l-95">
          <mxGeometry relative="1" as="geometry">
            <mxPoint x="2019.9999999999995" y="89.38" as="targetPoint" />
          </mxGeometry>
        </mxCell>
        <mxCell id="N2MzjKT95uYfe9s_-h8l-130" style="edgeStyle=orthogonalEdgeStyle;rounded=0;orthogonalLoop=1;jettySize=auto;html=1;exitX=0.5;exitY=1;exitDx=0;exitDy=0;entryX=0.5;entryY=0;entryDx=0;entryDy=0;entryPerimeter=0;" edge="1" parent="1" source="N2MzjKT95uYfe9s_-h8l-109" target="N2MzjKT95uYfe9s_-h8l-90">
          <mxGeometry relative="1" as="geometry" />
        </mxCell>
        <mxCell id="N2MzjKT95uYfe9s_-h8l-132" style="edgeStyle=orthogonalEdgeStyle;rounded=0;orthogonalLoop=1;jettySize=auto;html=1;entryX=0;entryY=0.5;entryDx=0;entryDy=0;exitX=0;exitY=0.5;exitDx=0;exitDy=0;" edge="1" parent="1" source="N2MzjKT95uYfe9s_-h8l-133" target="N2MzjKT95uYfe9s_-h8l-105">
          <mxGeometry relative="1" as="geometry" />
        </mxCell>
        <mxCell id="N2MzjKT95uYfe9s_-h8l-208" value="" style="edgeStyle=orthogonalEdgeStyle;rounded=0;orthogonalLoop=1;jettySize=auto;html=1;" edge="1" parent="1" source="N2MzjKT95uYfe9s_-h8l-133" target="N2MzjKT95uYfe9s_-h8l-94">
          <mxGeometry relative="1" as="geometry" />
        </mxCell>
        <mxCell id="N2MzjKT95uYfe9s_-h8l-133" value="LER DADOS" style="shape=process;whiteSpace=wrap;html=1;backgroundOutline=1;" vertex="1" parent="1">
          <mxGeometry x="897" y="410" width="110" height="30" as="geometry" />
        </mxCell>
        <mxCell id="N2MzjKT95uYfe9s_-h8l-134" value="IMP-CABECALHO" style="strokeWidth=2;html=1;shape=mxgraph.flowchart.start_1;whiteSpace=wrap;" vertex="1" parent="1">
          <mxGeometry x="1176" y="35" width="130" height="30" as="geometry" />
        </mxCell>
        <mxCell id="N2MzjKT95uYfe9s_-h8l-137" style="edgeStyle=orthogonalEdgeStyle;rounded=0;orthogonalLoop=1;jettySize=auto;html=1;exitX=0.5;exitY=1;exitDx=0;exitDy=0;" edge="1" parent="1" source="N2MzjKT95uYfe9s_-h8l-138">
          <mxGeometry relative="1" as="geometry">
            <mxPoint x="1241" y="901.25" as="targetPoint" />
          </mxGeometry>
        </mxCell>
        <mxCell id="N2MzjKT95uYfe9s_-h8l-184" value="" style="edgeStyle=orthogonalEdgeStyle;rounded=0;orthogonalLoop=1;jettySize=auto;html=1;" edge="1" parent="1" source="N2MzjKT95uYfe9s_-h8l-138" target="N2MzjKT95uYfe9s_-h8l-147">
          <mxGeometry relative="1" as="geometry" />
        </mxCell>
        <mxCell id="N2MzjKT95uYfe9s_-h8l-138" value="MOVE 4 TO QT-LINHAS" style="rounded=1;whiteSpace=wrap;html=1;absoluteArcSize=1;arcSize=14;strokeWidth=2;" vertex="1" parent="1">
          <mxGeometry x="1176" y="800" width="130" height="36.25" as="geometry" />
        </mxCell>
        <mxCell id="N2MzjKT95uYfe9s_-h8l-139" style="edgeStyle=orthogonalEdgeStyle;rounded=0;orthogonalLoop=1;jettySize=auto;html=1;exitX=0.5;exitY=1;exitDx=0;exitDy=0;exitPerimeter=0;entryX=0.5;entryY=0;entryDx=0;entryDy=0;" edge="1" parent="1" source="N2MzjKT95uYfe9s_-h8l-140" target="N2MzjKT95uYfe9s_-h8l-145">
          <mxGeometry relative="1" as="geometry" />
        </mxCell>
        <mxCell id="N2MzjKT95uYfe9s_-h8l-140" value="IMP-DETALHE" style="strokeWidth=2;html=1;shape=mxgraph.flowchart.start_1;whiteSpace=wrap;" vertex="1" parent="1">
          <mxGeometry x="1550" y="28.75" width="130" height="30" as="geometry" />
        </mxCell>
        <mxCell id="N2MzjKT95uYfe9s_-h8l-143" style="edgeStyle=orthogonalEdgeStyle;rounded=0;orthogonalLoop=1;jettySize=auto;html=1;exitX=0.5;exitY=1;exitDx=0;exitDy=0;" edge="1" parent="1" source="N2MzjKT95uYfe9s_-h8l-144">
          <mxGeometry relative="1" as="geometry">
            <mxPoint x="1615" y="281.25" as="targetPoint" />
          </mxGeometry>
        </mxCell>
        <mxCell id="N2MzjKT95uYfe9s_-h8l-144" value="QT-LINHAS =&amp;nbsp;&lt;div&gt;QT-LINHAS + 1&lt;/div&gt;" style="rounded=1;whiteSpace=wrap;html=1;absoluteArcSize=1;arcSize=14;strokeWidth=2;" vertex="1" parent="1">
          <mxGeometry x="1550" y="215" width="130" height="36.25" as="geometry" />
        </mxCell>
        <mxCell id="N2MzjKT95uYfe9s_-h8l-145" value="MOVE CLIENTES&lt;div&gt;PARA DETALHE&lt;/div&gt;" style="rounded=1;whiteSpace=wrap;html=1;absoluteArcSize=1;arcSize=14;strokeWidth=2;" vertex="1" parent="1">
          <mxGeometry x="1550" y="77.5" width="130" height="36.25" as="geometry" />
        </mxCell>
        <mxCell id="N2MzjKT95uYfe9s_-h8l-146" style="edgeStyle=orthogonalEdgeStyle;rounded=0;orthogonalLoop=1;jettySize=auto;html=1;exitX=0.5;exitY=1;exitDx=0;exitDy=0;" edge="1" parent="1" source="N2MzjKT95uYfe9s_-h8l-144" target="N2MzjKT95uYfe9s_-h8l-144">
          <mxGeometry relative="1" as="geometry" />
        </mxCell>
        <mxCell id="N2MzjKT95uYfe9s_-h8l-147" value="FIM-IMP-CABECALHO" style="strokeWidth=2;html=1;shape=mxgraph.flowchart.start_1;whiteSpace=wrap;" vertex="1" parent="1">
          <mxGeometry x="1191" y="880" width="100" height="30" as="geometry" />
        </mxCell>
        <mxCell id="N2MzjKT95uYfe9s_-h8l-148" value="FIM-IMP-DETALHE" style="strokeWidth=2;html=1;shape=mxgraph.flowchart.start_1;whiteSpace=wrap;" vertex="1" parent="1">
          <mxGeometry x="1565" y="283.75" width="100" height="36.25" as="geometry" />
        </mxCell>
        <mxCell id="N2MzjKT95uYfe9s_-h8l-151" value="IMP-CABECALHO" style="shape=process;whiteSpace=wrap;html=1;backgroundOutline=1;" vertex="1" parent="1">
          <mxGeometry x="330" y="210" width="110" height="30" as="geometry" />
        </mxCell>
        <mxCell id="N2MzjKT95uYfe9s_-h8l-152" style="edgeStyle=orthogonalEdgeStyle;rounded=0;orthogonalLoop=1;jettySize=auto;html=1;entryX=0;entryY=0.5;entryDx=0;entryDy=0;entryPerimeter=0;exitX=0.5;exitY=1;exitDx=0;exitDy=0;" edge="1" parent="1" source="N2MzjKT95uYfe9s_-h8l-151" target="N2MzjKT95uYfe9s_-h8l-123">
          <mxGeometry relative="1" as="geometry" />
        </mxCell>
        <mxCell id="N2MzjKT95uYfe9s_-h8l-153" style="edgeStyle=orthogonalEdgeStyle;rounded=0;orthogonalLoop=1;jettySize=auto;html=1;entryX=0.5;entryY=0;entryDx=0;entryDy=0;" edge="1" parent="1" source="N2MzjKT95uYfe9s_-h8l-154" target="N2MzjKT95uYfe9s_-h8l-133">
          <mxGeometry relative="1" as="geometry" />
        </mxCell>
        <mxCell id="N2MzjKT95uYfe9s_-h8l-154" value="IMP-DETALHE" style="shape=process;whiteSpace=wrap;html=1;backgroundOutline=1;" vertex="1" parent="1">
          <mxGeometry x="897" y="360" width="110" height="30" as="geometry" />
        </mxCell>
        <mxCell id="N2MzjKT95uYfe9s_-h8l-210" value="" style="edgeStyle=orthogonalEdgeStyle;rounded=0;orthogonalLoop=1;jettySize=auto;html=1;" edge="1" parent="1" source="N2MzjKT95uYfe9s_-h8l-156" target="N2MzjKT95uYfe9s_-h8l-209">
          <mxGeometry relative="1" as="geometry" />
        </mxCell>
        <mxCell id="N2MzjKT95uYfe9s_-h8l-156" value="" style="ellipse;whiteSpace=wrap;html=1;aspect=fixed;" vertex="1" parent="1">
          <mxGeometry x="937" y="221.25" width="30" height="30" as="geometry" />
        </mxCell>
        <mxCell id="N2MzjKT95uYfe9s_-h8l-206" value="" style="edgeStyle=orthogonalEdgeStyle;rounded=0;orthogonalLoop=1;jettySize=auto;html=1;" edge="1" parent="1" source="N2MzjKT95uYfe9s_-h8l-158" target="N2MzjKT95uYfe9s_-h8l-203">
          <mxGeometry relative="1" as="geometry" />
        </mxCell>
        <mxCell id="N2MzjKT95uYfe9s_-h8l-158" value="IMP-VALOR" style="shape=process;whiteSpace=wrap;html=1;backgroundOutline=1;" vertex="1" parent="1">
          <mxGeometry x="1007" y="151.25" width="140" height="30" as="geometry" />
        </mxCell>
        <mxCell id="N2MzjKT95uYfe9s_-h8l-163" value="" style="edgeStyle=orthogonalEdgeStyle;rounded=0;orthogonalLoop=1;jettySize=auto;html=1;exitX=0.5;exitY=1;exitDx=0;exitDy=0;exitPerimeter=0;entryX=0.5;entryY=0;entryDx=0;entryDy=0;entryPerimeter=0;" edge="1" parent="1" source="N2MzjKT95uYfe9s_-h8l-134" target="N2MzjKT95uYfe9s_-h8l-162">
          <mxGeometry relative="1" as="geometry">
            <mxPoint x="1241" y="65" as="sourcePoint" />
            <mxPoint x="1241" y="249" as="targetPoint" />
          </mxGeometry>
        </mxCell>
        <mxCell id="N2MzjKT95uYfe9s_-h8l-165" style="edgeStyle=orthogonalEdgeStyle;rounded=0;orthogonalLoop=1;jettySize=auto;html=1;exitX=1;exitY=0.5;exitDx=0;exitDy=0;exitPerimeter=0;entryX=0.5;entryY=0;entryDx=0;entryDy=0;" edge="1" parent="1" source="N2MzjKT95uYfe9s_-h8l-162" target="N2MzjKT95uYfe9s_-h8l-164">
          <mxGeometry relative="1" as="geometry" />
        </mxCell>
        <mxCell id="N2MzjKT95uYfe9s_-h8l-171" value="SIM" style="edgeLabel;html=1;align=center;verticalAlign=middle;resizable=0;points=[];" vertex="1" connectable="0" parent="N2MzjKT95uYfe9s_-h8l-165">
          <mxGeometry x="-0.2871" y="-2" relative="1" as="geometry">
            <mxPoint as="offset" />
          </mxGeometry>
        </mxCell>
        <mxCell id="N2MzjKT95uYfe9s_-h8l-169" style="edgeStyle=orthogonalEdgeStyle;rounded=0;orthogonalLoop=1;jettySize=auto;html=1;entryX=0.5;entryY=0;entryDx=0;entryDy=0;" edge="1" parent="1" source="N2MzjKT95uYfe9s_-h8l-162" target="N2MzjKT95uYfe9s_-h8l-168">
          <mxGeometry relative="1" as="geometry" />
        </mxCell>
        <mxCell id="N2MzjKT95uYfe9s_-h8l-223" value="NAO" style="edgeLabel;html=1;align=center;verticalAlign=middle;resizable=0;points=[];" vertex="1" connectable="0" parent="N2MzjKT95uYfe9s_-h8l-169">
          <mxGeometry x="-0.1151" relative="1" as="geometry">
            <mxPoint as="offset" />
          </mxGeometry>
        </mxCell>
        <mxCell id="N2MzjKT95uYfe9s_-h8l-162" value="PAG &amp;gt; 1" style="strokeWidth=2;html=1;shape=mxgraph.flowchart.decision;whiteSpace=wrap;" vertex="1" parent="1">
          <mxGeometry x="1191" y="97.5" width="100" height="100" as="geometry" />
        </mxCell>
        <mxCell id="N2MzjKT95uYfe9s_-h8l-167" value="" style="edgeStyle=orthogonalEdgeStyle;rounded=0;orthogonalLoop=1;jettySize=auto;html=1;" edge="1" parent="1" source="N2MzjKT95uYfe9s_-h8l-164" target="N2MzjKT95uYfe9s_-h8l-166">
          <mxGeometry relative="1" as="geometry" />
        </mxCell>
        <mxCell id="N2MzjKT95uYfe9s_-h8l-164" value="MOVER CABE3&lt;div&gt;PARA&lt;/div&gt;&lt;div&gt;ARQ-RELAT&lt;/div&gt;" style="rounded=1;whiteSpace=wrap;html=1;absoluteArcSize=1;arcSize=14;strokeWidth=2;" vertex="1" parent="1">
          <mxGeometry x="1320" y="180" width="100" height="60" as="geometry" />
        </mxCell>
        <mxCell id="N2MzjKT95uYfe9s_-h8l-170" style="edgeStyle=orthogonalEdgeStyle;rounded=0;orthogonalLoop=1;jettySize=auto;html=1;entryX=1;entryY=0.5;entryDx=0;entryDy=0;exitX=0.5;exitY=1;exitDx=0;exitDy=0;" edge="1" parent="1" source="N2MzjKT95uYfe9s_-h8l-166" target="N2MzjKT95uYfe9s_-h8l-168">
          <mxGeometry relative="1" as="geometry" />
        </mxCell>
        <mxCell id="N2MzjKT95uYfe9s_-h8l-166" value="GRAVA ARQ-RELAT" style="rounded=1;whiteSpace=wrap;html=1;absoluteArcSize=1;arcSize=14;strokeWidth=2;" vertex="1" parent="1">
          <mxGeometry x="1320" y="277.5" width="100" height="60" as="geometry" />
        </mxCell>
        <mxCell id="N2MzjKT95uYfe9s_-h8l-172" value="" style="edgeStyle=orthogonalEdgeStyle;rounded=0;orthogonalLoop=1;jettySize=auto;html=1;entryX=0.5;entryY=0;entryDx=0;entryDy=0;entryPerimeter=0;" edge="1" parent="1" source="N2MzjKT95uYfe9s_-h8l-168">
          <mxGeometry relative="1" as="geometry">
            <mxPoint x="1241" y="430" as="targetPoint" />
          </mxGeometry>
        </mxCell>
        <mxCell id="N2MzjKT95uYfe9s_-h8l-168" value="" style="ellipse;whiteSpace=wrap;html=1;aspect=fixed;" vertex="1" parent="1">
          <mxGeometry x="1226" y="360" width="30" height="30" as="geometry" />
        </mxCell>
        <mxCell id="N2MzjKT95uYfe9s_-h8l-177" value="" style="edgeStyle=orthogonalEdgeStyle;rounded=0;orthogonalLoop=1;jettySize=auto;html=1;" edge="1" parent="1" source="N2MzjKT95uYfe9s_-h8l-175" target="N2MzjKT95uYfe9s_-h8l-176">
          <mxGeometry relative="1" as="geometry" />
        </mxCell>
        <mxCell id="N2MzjKT95uYfe9s_-h8l-175" value="MOVER CABE1&lt;div&gt;PARA&lt;/div&gt;&lt;div&gt;ARQ-RELAT&lt;/div&gt;" style="rounded=1;whiteSpace=wrap;html=1;absoluteArcSize=1;arcSize=14;strokeWidth=2;" vertex="1" parent="1">
          <mxGeometry x="1191" y="430" width="100" height="60" as="geometry" />
        </mxCell>
        <mxCell id="N2MzjKT95uYfe9s_-h8l-182" style="edgeStyle=orthogonalEdgeStyle;rounded=0;orthogonalLoop=1;jettySize=auto;html=1;entryX=0.5;entryY=0;entryDx=0;entryDy=0;" edge="1" parent="1" source="N2MzjKT95uYfe9s_-h8l-176" target="N2MzjKT95uYfe9s_-h8l-179">
          <mxGeometry relative="1" as="geometry" />
        </mxCell>
        <mxCell id="N2MzjKT95uYfe9s_-h8l-176" value="GRAVA ARQ-RELAT" style="rounded=1;whiteSpace=wrap;html=1;absoluteArcSize=1;arcSize=14;strokeWidth=2;" vertex="1" parent="1">
          <mxGeometry x="1191" y="525" width="100" height="60" as="geometry" />
        </mxCell>
        <mxCell id="N2MzjKT95uYfe9s_-h8l-178" value="" style="edgeStyle=orthogonalEdgeStyle;rounded=0;orthogonalLoop=1;jettySize=auto;html=1;" edge="1" source="N2MzjKT95uYfe9s_-h8l-179" target="N2MzjKT95uYfe9s_-h8l-180" parent="1">
          <mxGeometry relative="1" as="geometry" />
        </mxCell>
        <mxCell id="N2MzjKT95uYfe9s_-h8l-179" value="MOVER CABE2&lt;div&gt;PARA&lt;/div&gt;&lt;div&gt;ARQ-RELAT&lt;/div&gt;" style="rounded=1;whiteSpace=wrap;html=1;absoluteArcSize=1;arcSize=14;strokeWidth=2;" vertex="1" parent="1">
          <mxGeometry x="1191" y="620" width="100" height="60" as="geometry" />
        </mxCell>
        <mxCell id="N2MzjKT95uYfe9s_-h8l-183" value="" style="edgeStyle=orthogonalEdgeStyle;rounded=0;orthogonalLoop=1;jettySize=auto;html=1;" edge="1" parent="1" source="N2MzjKT95uYfe9s_-h8l-180" target="N2MzjKT95uYfe9s_-h8l-138">
          <mxGeometry relative="1" as="geometry" />
        </mxCell>
        <mxCell id="N2MzjKT95uYfe9s_-h8l-180" value="GRAVA ARQ-RELAT" style="rounded=1;whiteSpace=wrap;html=1;absoluteArcSize=1;arcSize=14;strokeWidth=2;" vertex="1" parent="1">
          <mxGeometry x="1191" y="700" width="100" height="60" as="geometry" />
        </mxCell>
        <mxCell id="N2MzjKT95uYfe9s_-h8l-186" value="" style="edgeStyle=orthogonalEdgeStyle;rounded=0;orthogonalLoop=1;jettySize=auto;html=1;exitX=0.5;exitY=1;exitDx=0;exitDy=0;entryX=0.5;entryY=0;entryDx=0;entryDy=0;entryPerimeter=0;" edge="1" parent="1" source="N2MzjKT95uYfe9s_-h8l-145" target="N2MzjKT95uYfe9s_-h8l-185">
          <mxGeometry relative="1" as="geometry">
            <mxPoint x="1615" y="114" as="sourcePoint" />
            <mxPoint x="1605" y="305" as="targetPoint" />
          </mxGeometry>
        </mxCell>
        <mxCell id="N2MzjKT95uYfe9s_-h8l-187" value="" style="edgeStyle=orthogonalEdgeStyle;rounded=0;orthogonalLoop=1;jettySize=auto;html=1;entryX=0.5;entryY=0;entryDx=0;entryDy=0;" edge="1" parent="1" source="N2MzjKT95uYfe9s_-h8l-185" target="N2MzjKT95uYfe9s_-h8l-144">
          <mxGeometry relative="1" as="geometry" />
        </mxCell>
        <mxCell id="N2MzjKT95uYfe9s_-h8l-185" value="MOVE &lt;span style=&quot;background-color: initial;&quot;&gt;DETALHE PARA ARQ-RELAT&lt;/span&gt;" style="rounded=1;whiteSpace=wrap;html=1;absoluteArcSize=1;arcSize=14;strokeWidth=2;" vertex="1" parent="1">
          <mxGeometry x="1550" y="146.25" width="130" height="36.25" as="geometry" />
        </mxCell>
        <mxCell id="N2MzjKT95uYfe9s_-h8l-190" style="edgeStyle=orthogonalEdgeStyle;rounded=0;orthogonalLoop=1;jettySize=auto;html=1;exitX=0.5;exitY=1;exitDx=0;exitDy=0;exitPerimeter=0;entryX=0.5;entryY=0;entryDx=0;entryDy=0;" edge="1" parent="1" source="N2MzjKT95uYfe9s_-h8l-191" target="N2MzjKT95uYfe9s_-h8l-194">
          <mxGeometry relative="1" as="geometry" />
        </mxCell>
        <mxCell id="N2MzjKT95uYfe9s_-h8l-191" value="IMP-VALOR" style="strokeWidth=2;html=1;shape=mxgraph.flowchart.start_1;whiteSpace=wrap;" vertex="1" parent="1">
          <mxGeometry x="1740" y="30" width="130" height="30" as="geometry" />
        </mxCell>
        <mxCell id="N2MzjKT95uYfe9s_-h8l-201" value="" style="edgeStyle=orthogonalEdgeStyle;rounded=0;orthogonalLoop=1;jettySize=auto;html=1;" edge="1" parent="1" source="N2MzjKT95uYfe9s_-h8l-193" target="N2MzjKT95uYfe9s_-h8l-200">
          <mxGeometry relative="1" as="geometry" />
        </mxCell>
        <mxCell id="N2MzjKT95uYfe9s_-h8l-193" value="WRK-ASSI = 0" style="rounded=1;whiteSpace=wrap;html=1;absoluteArcSize=1;arcSize=14;strokeWidth=2;" vertex="1" parent="1">
          <mxGeometry x="1740" y="216.25" width="130" height="36.25" as="geometry" />
        </mxCell>
        <mxCell id="N2MzjKT95uYfe9s_-h8l-194" value="MOVE CABECALHO3&lt;div&gt;PARA ARQ-RELAT&lt;/div&gt;" style="rounded=1;whiteSpace=wrap;html=1;absoluteArcSize=1;arcSize=14;strokeWidth=2;" vertex="1" parent="1">
          <mxGeometry x="1740" y="78.75" width="130" height="36.25" as="geometry" />
        </mxCell>
        <mxCell id="N2MzjKT95uYfe9s_-h8l-195" style="edgeStyle=orthogonalEdgeStyle;rounded=0;orthogonalLoop=1;jettySize=auto;html=1;exitX=0.5;exitY=1;exitDx=0;exitDy=0;" edge="1" parent="1" source="N2MzjKT95uYfe9s_-h8l-193" target="N2MzjKT95uYfe9s_-h8l-193">
          <mxGeometry relative="1" as="geometry" />
        </mxCell>
        <mxCell id="N2MzjKT95uYfe9s_-h8l-196" value="FIM-IMP-VALOR" style="strokeWidth=2;html=1;shape=mxgraph.flowchart.start_1;whiteSpace=wrap;" vertex="1" parent="1">
          <mxGeometry x="1755" y="336.25" width="100" height="36.25" as="geometry" />
        </mxCell>
        <mxCell id="N2MzjKT95uYfe9s_-h8l-197" value="" style="edgeStyle=orthogonalEdgeStyle;rounded=0;orthogonalLoop=1;jettySize=auto;html=1;exitX=0.5;exitY=1;exitDx=0;exitDy=0;entryX=0.5;entryY=0;entryDx=0;entryDy=0;entryPerimeter=0;" edge="1" parent="1" source="N2MzjKT95uYfe9s_-h8l-194" target="N2MzjKT95uYfe9s_-h8l-199">
          <mxGeometry relative="1" as="geometry">
            <mxPoint x="1805" y="115.25" as="sourcePoint" />
            <mxPoint x="1795" y="306.25" as="targetPoint" />
          </mxGeometry>
        </mxCell>
        <mxCell id="N2MzjKT95uYfe9s_-h8l-198" value="" style="edgeStyle=orthogonalEdgeStyle;rounded=0;orthogonalLoop=1;jettySize=auto;html=1;entryX=0.5;entryY=0;entryDx=0;entryDy=0;" edge="1" parent="1" source="N2MzjKT95uYfe9s_-h8l-199" target="N2MzjKT95uYfe9s_-h8l-193">
          <mxGeometry relative="1" as="geometry" />
        </mxCell>
        <mxCell id="N2MzjKT95uYfe9s_-h8l-199" value="GRAVA ARQ-RELAT" style="rounded=1;whiteSpace=wrap;html=1;absoluteArcSize=1;arcSize=14;strokeWidth=2;" vertex="1" parent="1">
          <mxGeometry x="1740" y="147.5" width="130" height="36.25" as="geometry" />
        </mxCell>
        <mxCell id="N2MzjKT95uYfe9s_-h8l-200" value="QT-LINHA = 0" style="rounded=1;whiteSpace=wrap;html=1;absoluteArcSize=1;arcSize=14;strokeWidth=2;" vertex="1" parent="1">
          <mxGeometry x="1740" y="277.5" width="130" height="36.25" as="geometry" />
        </mxCell>
        <mxCell id="N2MzjKT95uYfe9s_-h8l-202" style="edgeStyle=orthogonalEdgeStyle;rounded=0;orthogonalLoop=1;jettySize=auto;html=1;entryX=0.5;entryY=0;entryDx=0;entryDy=0;entryPerimeter=0;" edge="1" parent="1" source="N2MzjKT95uYfe9s_-h8l-200" target="N2MzjKT95uYfe9s_-h8l-196">
          <mxGeometry relative="1" as="geometry" />
        </mxCell>
        <mxCell id="N2MzjKT95uYfe9s_-h8l-203" value="IMP-CABECALHO" style="shape=process;whiteSpace=wrap;html=1;backgroundOutline=1;" vertex="1" parent="1">
          <mxGeometry x="1007" y="197.5" width="140" height="30" as="geometry" />
        </mxCell>
        <mxCell id="N2MzjKT95uYfe9s_-h8l-207" style="edgeStyle=orthogonalEdgeStyle;rounded=0;orthogonalLoop=1;jettySize=auto;html=1;entryX=1;entryY=0.5;entryDx=0;entryDy=0;exitX=0.526;exitY=1.049;exitDx=0;exitDy=0;exitPerimeter=0;" edge="1" parent="1" source="N2MzjKT95uYfe9s_-h8l-203" target="N2MzjKT95uYfe9s_-h8l-156">
          <mxGeometry relative="1" as="geometry">
            <Array as="points">
              <mxPoint x="1081" y="236" />
            </Array>
          </mxGeometry>
        </mxCell>
        <mxCell id="N2MzjKT95uYfe9s_-h8l-211" value="" style="edgeStyle=orthogonalEdgeStyle;rounded=0;orthogonalLoop=1;jettySize=auto;html=1;" edge="1" parent="1" source="N2MzjKT95uYfe9s_-h8l-209" target="N2MzjKT95uYfe9s_-h8l-154">
          <mxGeometry relative="1" as="geometry" />
        </mxCell>
        <mxCell id="N2MzjKT95uYfe9s_-h8l-209" value="ASSINATURA = WRK-ASSI + WRK-VALOR-ASSI" style="rounded=1;whiteSpace=wrap;html=1;absoluteArcSize=1;arcSize=14;strokeWidth=2;" vertex="1" parent="1">
          <mxGeometry x="902" y="271.25" width="100" height="60" as="geometry" />
        </mxCell>
        <mxCell id="N2MzjKT95uYfe9s_-h8l-213" value="" style="edgeStyle=orthogonalEdgeStyle;rounded=0;orthogonalLoop=1;jettySize=auto;html=1;" edge="1" parent="1" source="N2MzjKT95uYfe9s_-h8l-218" target="N2MzjKT95uYfe9s_-h8l-98">
          <mxGeometry relative="1" as="geometry" />
        </mxCell>
        <mxCell id="N2MzjKT95uYfe9s_-h8l-212" value="IMP-VALOR" style="shape=process;whiteSpace=wrap;html=1;backgroundOutline=1;" vertex="1" parent="1">
          <mxGeometry x="1950" y="87.5" width="140" height="30" as="geometry" />
        </mxCell>
        <mxCell id="N2MzjKT95uYfe9s_-h8l-215" value="" style="edgeStyle=orthogonalEdgeStyle;rounded=0;orthogonalLoop=1;jettySize=auto;html=1;" edge="1" parent="1" source="N2MzjKT95uYfe9s_-h8l-212" target="N2MzjKT95uYfe9s_-h8l-214">
          <mxGeometry relative="1" as="geometry">
            <mxPoint x="2020" y="118" as="sourcePoint" />
            <mxPoint x="2020" y="293" as="targetPoint" />
          </mxGeometry>
        </mxCell>
        <mxCell id="N2MzjKT95uYfe9s_-h8l-214" value="MOVE CABECALHO5&lt;div&gt;PARA ARQ-RELAT&lt;/div&gt;" style="rounded=1;whiteSpace=wrap;html=1;absoluteArcSize=1;arcSize=14;strokeWidth=2;" vertex="1" parent="1">
          <mxGeometry x="1955" y="143.75" width="130" height="36.25" as="geometry" />
        </mxCell>
        <mxCell id="N2MzjKT95uYfe9s_-h8l-217" value="" style="edgeStyle=orthogonalEdgeStyle;rounded=0;orthogonalLoop=1;jettySize=auto;html=1;" edge="1" parent="1" source="N2MzjKT95uYfe9s_-h8l-214" target="N2MzjKT95uYfe9s_-h8l-216">
          <mxGeometry relative="1" as="geometry">
            <mxPoint x="2020" y="180" as="sourcePoint" />
            <mxPoint x="2020" y="293" as="targetPoint" />
          </mxGeometry>
        </mxCell>
        <mxCell id="N2MzjKT95uYfe9s_-h8l-216" value="GRAVA ARQ-RELAT" style="rounded=1;whiteSpace=wrap;html=1;absoluteArcSize=1;arcSize=14;strokeWidth=2;" vertex="1" parent="1">
          <mxGeometry x="1955" y="203.75" width="130" height="36.25" as="geometry" />
        </mxCell>
        <mxCell id="N2MzjKT95uYfe9s_-h8l-219" value="" style="edgeStyle=orthogonalEdgeStyle;rounded=0;orthogonalLoop=1;jettySize=auto;html=1;" edge="1" parent="1" source="N2MzjKT95uYfe9s_-h8l-216" target="N2MzjKT95uYfe9s_-h8l-218">
          <mxGeometry relative="1" as="geometry">
            <mxPoint x="2020" y="240" as="sourcePoint" />
            <mxPoint x="2020" y="338" as="targetPoint" />
          </mxGeometry>
        </mxCell>
        <mxCell id="N2MzjKT95uYfe9s_-h8l-218" value="ACU-LIDOS" style="strokeWidth=2;html=1;shape=mxgraph.flowchart.display;whiteSpace=wrap;" vertex="1" parent="1">
          <mxGeometry x="1970" y="260" width="100" height="60" as="geometry" />
        </mxCell>
      </root>
    </mxGraphModel>
  </diagram>
</mxfile>
